<?xml version="1.0" standalone="no"?>
<!DOCTYPE svg PUBLIC "-//W3C//DTD SVG 20010904//EN"
 "http://www.w3.org/TR/2001/REC-SVG-20010904/DTD/svg10.dtd">
<svg version="1.0" xmlns="http://www.w3.org/2000/svg"
 width="314.000000pt" height="314.000000pt" viewBox="0 0 314.000000 314.000000"
 preserveAspectRatio="xMidYMid meet">
<metadata>
Created by potrace 1.11, written by Peter Selinger 2001-2013
</metadata>
<g transform="translate(0.000000,314.000000) scale(0.100000,-0.100000)"
fill="#000000" stroke="none">
<path d="M1312 2407 c-42 -130 -132 -338 -185 -427 -25 -44 -28 -45 -67 -42
-61 6 -68 30 -25 82 30 36 35 49 35 92 0 89 -55 145 -134 135 -77 -11 -123
-95 -96 -178 7 -21 21 -46 32 -55 21 -20 24 -57 6 -72 -7 -5 -35 -13 -61 -16
-109 -16 -155 -101 -182 -336 -19 -160 -19 -209 1 -231 14 -15 9 -22 -58 -87
-138 -133 -366 -305 -520 -392 -32 -17 -58 -34 -58 -36 0 -8 72 26 176 81 190
101 353 217 516 365 l88 81 0 -281 0 -281 25 -24 c31 -32 74 -33 103 -2 21 23
22 30 22 276 0 225 2 252 16 249 14 -3 16 -39 15 -328 -1 -286 0 -328 15 -348
32 -46 99 -45 122 1 8 15 12 189 14 569 2 300 6 550 11 554 20 20 33 -41 48
-226 12 -154 21 -180 64 -180 42 0 48 22 41 134 -6 96 -26 238 -41 297 -5 22
0 31 40 63 90 74 95 42 95 -642 0 -312 4 -541 10 -556 19 -51 103 -66 146 -25
l24 22 2 340 c2 262 6 341 16 345 9 3 12 -83 12 -408 l0 -412 29 -29 c37 -37
88 -39 127 -6 l26 23 3 639 c1 515 5 650 16 689 8 27 19 51 25 53 6 2 36 -17
67 -42 50 -41 55 -50 52 -78 -2 -18 -6 -77 -9 -132 -4 -55 -9 -128 -12 -163
-9 -90 1 -130 32 -138 51 -13 56 5 61 227 3 112 7 205 8 207 1 2 14 0 29 -4
32 -8 34 -41 9 -141 -29 -110 -21 -641 13 -962 9 -87 67 -128 115 -80 20 20
21 24 13 386 l-7 365 29 -4 28 -3 -3 -200 c-2 -110 -4 -237 -5 -281 -1 -90 15
-124 59 -124 51 0 68 38 80 180 3 41 10 127 15 190 5 63 10 143 10 178 0 34 3
62 8 62 4 -1 34 -26 67 -57 77 -72 230 -186 343 -256 86 -53 304 -167 319
-167 5 0 -29 22 -74 49 -160 95 -350 238 -498 374 -62 57 -68 66 -56 81 12 14
12 47 2 219 -17 283 -21 316 -37 368 -18 56 -53 84 -143 114 -73 25 -85 43
-47 69 88 57 73 210 -25 250 -77 31 -157 -21 -166 -108 -7 -62 2 -90 43 -131
20 -20 33 -42 30 -50 -3 -8 -24 -19 -48 -25 -24 -6 -60 -20 -80 -31 l-37 -20
-18 33 c-52 99 -121 258 -159 373 -24 72 -43 123 -44 115 -1 -50 88 -351 138
-462 11 -27 19 -48 16 -48 -3 0 -32 19 -65 42 -54 38 -66 43 -130 46 -63 4
-72 7 -81 28 -10 21 -7 29 20 57 72 74 71 180 -1 255 -73 75 -189 57 -237 -38
-40 -79 -20 -181 47 -236 22 -17 24 -23 14 -42 -10 -19 -20 -22 -67 -22 -66 0
-112 -18 -171 -66 -24 -20 -46 -34 -49 -31 -3 2 9 40 27 83 52 132 139 438
127 449 -2 2 -22 -56 -46 -128z m688 -441 c14 -18 14 -18 -7 -6 -12 8 -19 18
-16 23 3 4 6 7 7 5 1 -2 8 -12 16 -22z m409 -270 c1 -78 4 -174 7 -214 6 -64
4 -72 -10 -66 -10 4 -16 19 -17 43 -1 48 -6 84 -25 161 -10 38 -14 84 -11 111
7 59 37 135 47 118 5 -7 9 -76 9 -153z m-1629 -85 c0 -115 -2 -131 -21 -155
-40 -51 -42 -39 -18 178 5 49 12 93 15 98 17 28 24 -6 24 -121z"/>
</g>
</svg>
